<?xml version="1.0" encoding="UTF-8" standalone="no"?>
<!-- Created with Inkscape (http://www.inkscape.org/) -->

<svg
   xmlns:dc="http://purl.org/dc/elements/1.1/"
   xmlns:cc="http://creativecommons.org/ns#"
   xmlns:rdf="http://www.w3.org/1999/02/22-rdf-syntax-ns#"
   xmlns:svg="http://www.w3.org/2000/svg"
   xmlns="http://www.w3.org/2000/svg"
   xmlns:sodipodi="http://sodipodi.sourceforge.net/DTD/sodipodi-0.dtd"
   xmlns:inkscape="http://www.inkscape.org/namespaces/inkscape"
   version="1.1"
   id="svg2"
   width="256"
   height="256"
   viewBox="0 0 256 256"
   sodipodi:docname="king_w.svg"
   inkscape:version="0.92.5 (2060ec1f9f, 2020-04-08)">
  <metadata
     id="metadata8">
    <rdf:RDF>
      <cc:Work
         rdf:about="">
        <dc:format>image/svg+xml</dc:format>
        <dc:type
           rdf:resource="http://purl.org/dc/dcmitype/StillImage" />
        <dc:title />
      </cc:Work>
    </rdf:RDF>
  </metadata>
  <defs
     id="defs6" />
  <sodipodi:namedview
     pagecolor="#ffffff"
     bordercolor="#666666"
     borderopacity="1"
     objecttolerance="10"
     gridtolerance="10"
     guidetolerance="10"
     inkscape:pageopacity="0"
     inkscape:pageshadow="2"
     inkscape:window-width="1366"
     inkscape:window-height="704"
     id="namedview4"
     showgrid="false"
     showguides="true"
     inkscape:guide-bbox="true"
     inkscape:zoom="1.4142136"
     inkscape:cx="105.57244"
     inkscape:cy="80.80172"
     inkscape:window-x="0"
     inkscape:window-y="27"
     inkscape:window-maximized="1"
     inkscape:current-layer="layer1">
    <sodipodi:guide
       position="127.80955,50.646523"
       orientation="1,0"
       id="guide817"
       inkscape:locked="false" />
  </sodipodi:namedview>
  <g
     inkscape:groupmode="layer"
     id="layer1"
     inkscape:label="SVG">
    <path
       style="opacity:1;fill:#ffffff;fill-opacity:1;stroke:#000000;stroke-width:7;stroke-miterlimit:4;stroke-dasharray:none;stroke-opacity:1"
       d="M 127.74287,231.33965 C 88.330975,231.96357 54.53561,220.3795 54.53561,220.3795 l 7.52689,-28.817 -3.875,-25.375 c 0,0 -32.908433,-18.19806 -32.554879,-46.83589 0.353553,-28.63782 29.168154,-34.825004 29.168154,-34.825004 0,0 21.369676,-3.641194 48.436815,8.662058 l 7.77817,3.535534 c 0,0 -8.53988,-27.753941 16.58971,-30.052038 V 23.627035"
       id="path819"
       inkscape:connector-curvature="0"
       sodipodi:nodetypes="ccccscsccc" />
    <path
       style="opacity:1;fill:#ffffff;fill-opacity:1;stroke:#000000;stroke-width:7;stroke-miterlimit:4;stroke-dasharray:none;stroke-opacity:1"
       d="m 110.39705,41.923423 17.20842,-10e-7"
       id="path845"
       inkscape:connector-curvature="0" />
    <path
       style="opacity:1;fill:#ffffff;fill-opacity:1;stroke:#000000;stroke-width:7;stroke-miterlimit:4;stroke-dasharray:none;stroke-opacity:1"
       d="m 127.60547,156.01562 c 0,0 2.42605,-33.56722 -16.58971,-59.291422"
       id="path847"
       inkscape:connector-curvature="0" />
    <path
       sodipodi:nodetypes="ccccscsccc"
       inkscape:connector-curvature="0"
       id="path869"
       d="m 127.74287,231.33965 c 39.97884,-0.84835 73.06986,-10.96015 73.06986,-10.96015 l -7.52689,-28.817 3.875,-25.375 c 0,0 32.90843,-18.19806 32.55488,-46.83589 -0.35355,-28.63782 -29.16815,-34.825004 -29.16815,-34.825004 0,0 -21.36968,-3.641194 -48.43682,8.662058 l -7.77817,3.535534 c 0,0 8.53988,-27.753941 -16.58971,-30.052038 V 23.627035"
       style="opacity:1;fill:#ffffff;fill-opacity:1;stroke:#000000;stroke-width:7;stroke-miterlimit:4;stroke-dasharray:none;stroke-opacity:1" />
    <path
       inkscape:connector-curvature="0"
       id="path871"
       d="m 144.95129,41.923423 -17.20842,-10e-7"
       style="opacity:1;fill:#ffffff;fill-opacity:1;stroke:#000000;stroke-width:7;stroke-miterlimit:4;stroke-dasharray:none;stroke-opacity:1" />
    <path
       inkscape:connector-curvature="0"
       id="path873"
       d="m 127.74287,156.01562 c 0,0 -2.42605,-33.56722 16.58971,-59.291422"
       style="opacity:1;fill:#ffffff;fill-opacity:1;stroke:#000000;stroke-width:7;stroke-miterlimit:4;stroke-dasharray:none;stroke-opacity:1" />
    <path
       id="path875"
       style="opacity:1;fill:#ffffff;fill-opacity:1;stroke:#000000;stroke-width:7;stroke-miterlimit:4;stroke-dasharray:none;stroke-opacity:1"
       d="m 197.16084,166.1875 c 0,0 -8.93304,-10.4542 -69.41797,-10.17188 M 58.1875,166.1875 c 0,0 10.042709,-8.33288 69.55537,-10.17188"
       inkscape:connector-curvature="0"
       sodipodi:nodetypes="cccc" />
    <path
       id="path877"
       style="opacity:1;fill:#ffffff;fill-opacity:1;stroke:#000000;stroke-width:7;stroke-miterlimit:4;stroke-dasharray:none;stroke-opacity:1"
       d="m 193.28584,191.5625 c 0,0 -9.77344,-9.0625 -65.54297,-8.8125 m -65.68037,8.8125 c 0,0 10.374229,-8.74924 65.68037,-8.8125"
       inkscape:connector-curvature="0"
       sodipodi:nodetypes="cccc" />
    <path
       id="path879"
       style="opacity:1;fill:#ffffff;fill-opacity:1;stroke:#000000;stroke-width:7;stroke-miterlimit:4;stroke-dasharray:none;stroke-opacity:1"
       d="m 199.09834,212.75 c 0,0 -20.51038,-8.68628 -71.28879,-8.98438 M 56.3874,212.75 c 0,0 22.402621,-8.92188 71.42215,-8.98438"
       inkscape:connector-curvature="0"
       sodipodi:nodetypes="cccc" />
  </g>
</svg>
